<svg width="215" height="215" viewBox="0 0 215 215" fill="none" xmlns="http://www.w3.org/2000/svg">
<circle opacity="0.5" cx="107.023" cy="107.219" r="93.4659" stroke="white" stroke-width="1.06818"/>
<path d="M118.707 108.061L96.5625 122.234C95.8969 122.66 95.0234 122.182 95.0234 121.392V93.0463C95.0234 92.256 95.8969 91.778 96.5625 92.204L118.707 106.377C119.322 106.77 119.322 107.668 118.707 108.061Z" fill="white"/>
<path d="M54.5132 141.293L55.4965 142.668L48.8642 149.046L48.884 149.074L57.0756 144.878L58.0688 146.268L49.0663 154.969L48.2022 153.76L55.6386 146.892L55.6187 146.864L46.6131 151.537L45.7987 150.397L53.1874 143.374L53.1675 143.346L44.2096 148.174L43.3455 146.965L54.5132 141.293Z" fill="white"/>
<path d="M38.6523 137.688L39.9289 137.071L41.2292 139.763L44.7205 138.076L43.6729 135.907L44.811 135.357L45.8587 137.526L49.8422 135.602L48.4602 132.741L49.7213 132.132L51.7498 136.33L40.599 141.717L38.6523 137.688Z" fill="white"/>
<path d="M36.5872 132.94L36.1412 131.63L37.3215 131.228C37.7742 131.074 38.2148 130.99 38.6433 130.976C39.0573 130.956 39.4843 131.009 39.9245 131.136L39.8633 131.698C39.539 131.664 39.2329 131.666 38.9451 131.704C38.6536 131.731 38.3389 131.796 38.0011 131.899L38.0748 132.433L36.5872 132.94Z" fill="white"/>
<path d="M40.6753 120.914L40.8627 121.782L46.1889 120.633L46.5025 122.085L34.3974 124.698L33.846 122.143C33.6683 121.32 33.81 120.654 34.2714 120.147C34.7216 119.642 35.5032 119.269 36.6164 119.029C37.5736 118.822 38.3224 118.783 38.8626 118.911C39.3893 119.03 39.7842 119.295 40.0472 119.704L45.3385 116.692L45.6628 118.195L40.6753 120.914ZM39.6439 122.045L39.4385 121.094C39.352 120.693 39.1349 120.443 38.7872 120.343C38.4371 120.232 37.8557 120.264 37.0431 120.44C36.6313 120.529 36.2966 120.624 36.0391 120.726C35.7815 120.828 35.5845 120.941 35.4478 121.064C35.3112 121.186 35.2295 121.32 35.2027 121.466C35.1758 121.612 35.1829 121.779 35.2237 121.968L35.4363 122.953L39.6439 122.045Z" fill="white"/>
<path d="M32.4891 111.216L33.9018 111.096L34.1547 114.074L38.0182 113.746L37.8144 111.346L39.0739 111.239L39.2776 113.639L43.6858 113.265L43.417 110.099L44.8126 109.981L45.2071 114.627L32.8677 115.675L32.4891 111.216Z" fill="white"/>
<path d="M33.2614 96.8914L38.4611 97.6919L38.8302 95.2946L33.6305 94.4941L33.8566 93.0253L46.0962 94.9098L45.8701 96.3785L40.1977 95.5052L39.8286 97.9024L45.501 98.7758L45.2749 100.245L33.0353 98.3601L33.2614 96.8914Z" fill="white"/>
<path d="M36.4831 83.426L37.8405 83.8352L36.9777 86.6972L40.69 87.8164L41.3852 85.5104L42.5954 85.8753L41.9003 88.1812L46.136 89.4581L47.053 86.4163L48.394 86.8206L47.0481 91.2852L35.1913 87.7108L36.4831 83.426Z" fill="white"/>
<path d="M45.8025 78.9861L45.4398 79.7968L50.4136 82.022L49.8068 83.3785L38.5026 78.3213L39.5699 75.9357C39.914 75.1665 40.4221 74.714 41.0942 74.578C41.7559 74.4374 42.6065 74.5996 43.646 75.0647C44.5399 75.4646 45.1667 75.876 45.5264 76.2989C45.8804 76.7068 46.0423 77.1535 46.0122 77.639L52.0598 78.3423L51.432 79.7456L45.8025 78.9861ZM44.3016 79.2876L44.6992 78.3989C44.8666 78.0247 44.8397 77.6945 44.6184 77.4084C44.4017 77.1119 43.914 76.7939 43.1552 76.4544C42.7706 76.2823 42.4443 76.1613 42.1762 76.0913C41.9081 76.0212 41.6827 75.9953 41.5 76.0133C41.3173 76.0314 41.172 76.0911 41.0642 76.1926C40.9565 76.2941 40.8631 76.4332 40.784 76.6099L40.3725 77.5298L44.3016 79.2876Z" fill="white"/>
<path d="M44.944 66.3241L46.1537 67.0633L44.5951 69.614L47.9036 71.6358L49.1595 69.5807L50.238 70.2398L48.9822 72.2949L52.7571 74.6017L54.4138 71.8907L55.6089 72.6211L53.1774 76.6001L42.6104 70.1427L44.944 66.3241Z" fill="white"/>
<path d="M64.6783 62.1124L59.2327 59.5124L59.2085 59.5365L59.7873 61.0345L62.7689 64.0196L61.7416 65.0456L52.9902 56.2837L54.0175 55.2577L58.4113 59.6568L58.4354 59.6327L55.794 53.4833L56.93 52.3486L59.0766 57.9783L65.8265 60.9657L64.6783 62.1124Z" fill="white"/>
<path d="M61.9566 48.2736L69.0945 52.9303L69.122 52.9099L64.3566 46.4916L65.3989 45.7178L72.7811 55.6606L71.9857 56.2512L64.6331 51.4773L64.6057 51.4977L69.5034 58.0942L68.4474 58.8783L61.0652 48.9354L61.9566 48.2736Z" fill="white"/>
<path d="M72.2866 41.4871C73.1094 41.0456 73.856 40.9679 74.5266 41.2542C75.1972 41.5406 75.791 42.1653 76.3079 43.1286L79.1591 48.4415C79.676 49.4048 79.8684 50.2449 79.7363 50.962C79.6041 51.6791 79.1267 52.2584 78.3039 52.6999C77.4912 53.1361 76.7445 53.2137 76.0639 52.9328C75.3933 52.6465 74.7995 52.0217 74.2826 51.0585L71.4314 45.7455C70.9145 44.7823 70.7221 43.9421 70.8542 43.225C70.9964 42.5026 71.4738 41.9233 72.2866 41.4871ZM74.9985 43.8313C74.6592 43.1991 74.3293 42.8011 74.0087 42.6371C73.6827 42.4632 73.3291 42.4785 72.9478 42.6831C72.5565 42.8931 72.3355 43.1797 72.2848 43.5429C72.2442 43.9007 72.3962 44.4007 72.7409 45.0428L75.592 50.3558C75.9366 50.9979 76.2719 51.406 76.5979 51.58C76.9286 51.7386 77.2846 51.7155 77.6658 51.5109C78.0572 51.3009 78.2731 51.017 78.3137 50.6592C78.349 50.2914 78.1943 49.7864 77.8496 49.1442L74.9985 43.8313Z" fill="white"/>
<path d="M91.0825 47.3798L89.4817 47.9248L85.2864 39.7357L85.254 39.7468L86.9107 48.8001L85.2938 49.3506L79.5564 38.2221L80.9632 37.7431L85.3966 46.8436L85.4289 46.8326L83.5503 36.8624L84.8762 36.411L89.4717 45.5104L89.504 45.4993L87.4634 35.5302L88.8701 35.0513L91.0825 47.3798Z" fill="white"/>
<path d="M104.736 33.0171L104.83 34.4317L103.007 34.5529L103.733 45.4948L102.251 45.5933L101.524 34.6513L99.7001 34.7725L99.6062 33.3578L104.736 33.0171Z" fill="white"/>
<path d="M112.687 33.215L112.267 38.4592L114.685 38.6526L115.105 33.4084L116.586 33.5269L115.599 45.8712L114.117 45.7527L114.575 40.0318L112.157 39.8384L111.699 45.5593L110.218 45.4409L111.205 33.0965L112.687 33.215Z" fill="white"/>
<path d="M126.351 35.4475L126.042 36.8311L123.125 36.1792L122.279 39.9633L124.63 40.4885L124.354 41.7221L122.004 41.1969L121.039 45.5144L124.139 46.2073L123.834 47.5742L119.283 46.5572L121.984 34.4715L126.351 35.4475Z" fill="white"/>
<path d="M140.873 41.014C141.69 41.4163 142.19 41.986 142.373 42.7233C142.556 43.4606 142.404 44.3248 141.916 45.3159L139.442 50.3427C138.96 51.3236 138.37 51.9664 137.675 52.2713C136.979 52.5762 136.222 52.5275 135.405 52.1252L132.983 50.9336L138.451 39.8224L140.873 41.014ZM140.56 44.7057C140.892 44.0313 141.029 43.5085 140.97 43.1371C140.917 42.7555 140.681 42.4616 140.262 42.2554L139.174 41.7199L134.92 50.3637L136.008 50.8992C136.407 51.0953 136.773 51.1108 137.109 50.9457C137.449 50.7704 137.785 50.3456 138.116 49.6712L140.56 44.7057Z" fill="white"/>
<path d="M149.265 45.9517L142.425 56.275L141.186 55.4541L148.026 45.1309L149.265 45.9517Z" fill="white"/>
<path d="M157.953 52.7369L157.046 53.826L154.736 51.9013L152.199 54.9455L154.22 56.6296L153.356 57.6662L151.335 55.9821L147.715 60.3254L146.561 59.363L154.489 49.8499L157.953 52.7369Z" fill="white"/>
<path d="M163.669 58.6158L162.647 59.5991L160.562 57.4333L157.707 60.1818L159.532 62.0768L158.56 63.0127L156.735 61.1176L152.662 65.0389L151.62 63.956L160.541 55.3672L163.669 58.6158Z" fill="white"/>
<path d="M168.717 65.1641L167.583 66.0161L165.787 63.6267L162.688 65.9567L164.135 67.8818L163.125 68.6413L161.678 66.7162L158.141 69.3746L160.051 71.9142L158.931 72.7558L156.129 69.0285L166.027 61.587L168.717 65.1641Z" fill="white"/>
<path d="M166.781 75.3039L166.342 74.5317L161.605 77.2238L160.871 75.9318L171.637 69.8133L172.928 72.0855C173.345 72.8181 173.409 73.4955 173.121 74.1177C172.842 74.7343 172.208 75.3239 171.218 75.8865C170.367 76.3704 169.664 76.6321 169.11 76.6718C168.572 76.7157 168.116 76.5818 167.743 76.2702L163.596 80.7286L162.837 79.392L166.781 75.3039ZM167.426 73.9156L167.907 74.7621C168.11 75.1185 168.392 75.2922 168.753 75.2832C169.121 75.2841 169.666 75.0791 170.388 74.6684C170.755 74.4603 171.045 74.2689 171.261 74.0942C171.476 73.9196 171.63 73.7533 171.724 73.5953C171.817 73.4374 171.855 73.2849 171.837 73.138C171.819 72.991 171.762 72.8334 171.667 72.6651L171.169 71.7889L167.426 73.9156Z" fill="white"/>
<path d="M177.495 82.105L176.183 82.6426L175.05 79.8766L171.462 81.3468L172.375 83.5754L171.206 84.0547L170.293 81.8261L166.199 83.5036L167.404 86.4434L166.108 86.9745L164.339 82.6596L175.798 77.964L177.495 82.105Z" fill="white"/>
<path d="M179.462 88.5131L172.442 93.346L172.451 93.3791L180.198 91.4102L180.518 92.6684L168.516 95.7185L168.272 94.7583L175.482 89.7714L175.473 89.7383L167.51 91.7619L167.186 90.4872L179.189 87.437L179.462 88.5131Z" fill="white"/>
<path d="M181.798 100.458C181.873 101.137 181.689 101.713 181.248 102.185C180.819 102.656 180.197 102.993 179.383 103.196L178.947 102.041C179.505 101.9 179.903 101.719 180.142 101.498C180.382 101.277 180.483 101.003 180.447 100.674C180.361 99.8821 179.65 99.5588 178.314 99.7048L172.218 100.371C171.641 100.434 171.193 100.58 170.874 100.81C170.567 101.038 170.435 101.35 170.478 101.746C170.517 102.097 170.665 102.35 170.922 102.506C171.192 102.671 171.677 102.761 172.378 102.776L172.217 103.979C171.173 103.967 170.42 103.78 169.956 103.419C169.493 103.057 169.222 102.514 169.143 101.789C169.054 100.974 169.273 100.309 169.801 99.7928C170.341 99.2871 171.093 98.9816 172.055 98.8765L178.151 98.2105C179.215 98.0943 180.066 98.236 180.706 98.6359C181.345 99.0357 181.709 99.6431 181.798 100.458Z" fill="white"/>
<path d="M181.886 112.545L180.468 112.51L180.543 109.521L176.667 109.424L176.607 111.832L175.343 111.8L175.404 109.392L170.981 109.281L170.901 112.457L169.501 112.422L169.618 107.76L181.998 108.071L181.886 112.545Z" fill="white"/>
<path d="M179.543 126.73L167.527 123.734L167.887 122.292L179.903 125.288L179.543 126.73Z" fill="white"/>
<path d="M177.05 134.954C176.785 135.645 176.36 136.086 175.775 136.276C175.196 136.481 174.501 136.513 173.689 136.373L173.779 135.182C174.354 135.305 174.797 135.31 175.109 135.198C175.431 135.089 175.651 134.881 175.769 134.573C176.026 133.903 175.671 133.382 174.703 133.011C174.288 132.852 173.896 132.794 173.527 132.835C173.153 132.887 172.787 132.984 172.427 133.127C172.067 133.269 171.7 133.433 171.324 133.618C170.944 133.814 170.548 133.973 170.135 134.095C169.722 134.218 169.283 134.281 168.818 134.286C168.359 134.305 167.854 134.209 167.301 133.997C166.301 133.614 165.622 133.109 165.264 132.484C164.907 131.859 164.868 131.18 165.15 130.446C165.386 129.83 165.808 129.381 166.415 129.102C167.018 128.833 167.792 128.819 168.736 129.059L168.583 130.318C167.913 130.158 167.407 130.141 167.066 130.266C166.736 130.396 166.512 130.615 166.394 130.923C166.129 131.614 166.528 132.164 167.591 132.571C168.048 132.747 168.474 132.812 168.869 132.769C169.26 132.736 169.642 132.644 170.017 132.495C170.397 132.361 170.778 132.196 171.158 132C171.534 131.815 171.925 131.654 172.331 131.517C172.733 131.39 173.163 131.317 173.622 131.298C174.077 131.289 174.58 131.391 175.133 131.603C175.537 131.758 175.891 131.949 176.195 132.175C176.494 132.411 176.729 132.672 176.901 132.958C177.078 133.257 177.183 133.572 177.216 133.902C177.244 134.242 177.189 134.592 177.05 134.954Z" fill="white"/>
<path d="M169.041 149.823L158.719 142.981L159.54 141.742L169.862 148.584L169.041 149.823Z" fill="white"/>
<path d="M164.334 156.021L156.355 153.026L156.332 153.052L162.378 158.282L161.529 159.263L152.163 151.162L152.811 150.412L161.025 153.475L161.048 153.449L154.834 148.074L155.694 147.079L165.06 155.181L164.334 156.021Z" fill="white"/>
<path d="M148.384 170.267L147.553 169.118L149.033 168.047L142.606 159.162L143.81 158.291L150.237 167.176L151.718 166.105L152.549 167.253L148.384 170.267Z" fill="white"/>
<path d="M142.998 173.417L140.511 168.781L138.373 169.928L140.86 174.564L139.55 175.266L133.697 164.353L135.007 163.651L137.72 168.708L139.857 167.562L137.144 162.504L138.454 161.802L144.307 172.715L142.998 173.417Z" fill="white"/>
<path d="M130.3 178.939L129.811 177.608L132.617 176.577L131.279 172.938L129.018 173.769L128.582 172.582L130.843 171.751L129.316 167.599L126.334 168.695L125.851 167.381L130.228 165.772L134.501 177.395L130.3 178.939Z" fill="white"/>
<path d="M115.078 182.12C114.173 182.225 113.444 182.017 112.891 181.496C112.338 180.975 111.998 180.166 111.872 179.068L111.23 173.503C111.105 172.417 111.252 171.557 111.672 170.924C112.092 170.291 112.754 169.922 113.659 169.818L116.34 169.509L117.759 181.811L115.078 182.12ZM113.342 178.847C113.428 179.594 113.596 180.108 113.846 180.388C114.098 180.68 114.455 180.799 114.919 180.746L116.124 180.607L115.021 171.037L113.816 171.176C113.375 171.227 113.058 171.412 112.866 171.732C112.675 172.064 112.622 172.603 112.708 173.349L113.342 178.847Z" fill="white"/>
<path d="M102.443 182.434L102.479 181.017L105.467 181.092L105.565 177.216L103.157 177.155L103.189 175.892L105.597 175.953L105.709 171.53L102.533 171.45L102.568 170.05L107.23 170.167L106.917 182.547L102.443 182.434Z" fill="white"/>
<path d="M92.5797 181.156L92.796 179.755L94.6023 180.034L96.2749 169.196L97.7435 169.423L96.0709 180.26L97.8772 180.539L97.661 181.94L92.5797 181.156Z" fill="white"/>
<path d="M90.6797 167.925L92.105 168.345L86.3542 179.56L84.634 179.052L85.8962 166.512L87.3542 166.943L86.9509 170.119L89.3099 170.815L90.6797 167.925ZM88.7747 171.904L86.7925 171.319L85.926 177.813L85.9588 177.822L88.7747 171.904Z" fill="white"/>
<path d="M76.2639 175.825L81.2562 164.492L82.6162 165.091L77.6238 176.424L76.2639 175.825Z" fill="white"/>
<path d="M69.1846 172.133L74.6766 162.641L72.1336 161.17L72.8436 159.943L76.6581 162.15L70.4561 172.868L69.1846 172.133Z" fill="white"/>
</svg>
