<svg width="994" height="295" viewBox="0 0 994 295" fill="none" xmlns="http://www.w3.org/2000/svg">
<rect opacity="0.5" x="118" width="294" height="295" fill="#EC2232"/>
<path d="M19.53 184H15.89V173.465C15.89 169.428 14.28 167.41 11.06 167.41C9.35667 167.41 8.07333 167.982 7.21 169.125C6.37 170.245 5.95 171.68 5.95 173.43V184H2.31V164.61H5.705V166.675H5.775C7.08167 164.948 8.97167 164.085 11.445 164.085C14.5483 164.085 16.835 165.24 18.305 167.55C19.1217 168.81 19.53 170.467 19.53 172.52V184ZM31.4308 167.935H28.2458V184H24.6058V167.935H21.9808V164.61H24.6058V158.1H28.2458V164.61H31.4308V167.935ZM48.2751 184H44.4951V158.1H48.2751V184ZM70.3894 184H66.7494V173.465C66.7494 169.428 65.1394 167.41 61.9194 167.41C60.216 167.41 58.9327 167.982 58.0694 169.125C57.2294 170.245 56.8094 171.68 56.8094 173.43V184H53.1694V164.61H56.5644V166.675H56.6344C57.941 164.948 59.831 164.085 62.3044 164.085C65.4077 164.085 67.6944 165.24 69.1644 167.55C69.981 168.81 70.3894 170.467 70.3894 172.52V184ZM94.4002 184H91.0402V181.235H90.9702C89.4069 183.405 87.1202 184.49 84.1102 184.49C81.2169 184.49 78.8135 183.533 76.9002 181.62C74.9869 179.683 74.0302 177.268 74.0302 174.375C74.0302 171.458 74.9752 169.02 76.8652 167.06C78.7785 165.077 81.1935 164.085 84.1102 164.085C85.3935 164.085 86.6185 164.342 87.7852 164.855C88.9752 165.345 89.9435 166.057 90.6902 166.99H90.7602V158.1H94.4002V184ZM91.0402 174.34C91.0402 172.38 90.4102 170.735 89.1502 169.405C87.8902 168.075 86.2802 167.41 84.3202 167.41C82.4302 167.41 80.8435 168.087 79.5602 169.44C78.3002 170.793 77.6702 172.427 77.6702 174.34C77.6702 176.183 78.3119 177.782 79.5952 179.135C80.8785 180.488 82.4419 181.165 84.2852 181.165C86.1752 181.165 87.7735 180.5 89.0802 179.17C90.3869 177.84 91.0402 176.23 91.0402 174.34ZM116.224 184H112.899V181.9H112.829C112.315 182.787 111.522 183.44 110.449 183.86C109.399 184.28 108.29 184.49 107.124 184.49C104.93 184.49 103.087 183.848 101.594 182.565C99.8902 181.095 99.0385 178.61 99.0385 175.11V164.61H102.679V175.11C102.679 177 103.04 178.482 103.764 179.555C104.487 180.628 105.735 181.165 107.509 181.165C109.259 181.165 110.542 180.593 111.359 179.45C112.175 178.307 112.584 176.825 112.584 175.005V164.61H116.224V184ZM132.639 178.295C132.639 180.162 132.021 181.667 130.784 182.81C129.571 183.93 128.019 184.49 126.129 184.49C125.336 184.49 124.508 184.338 123.644 184.035C122.221 183.522 121.136 182.717 120.389 181.62C119.643 180.5 119.269 179.17 119.269 177.63H122.909C122.979 178.703 123.283 179.567 123.819 180.22C124.379 180.85 125.173 181.165 126.199 181.165C127.016 181.165 127.681 180.932 128.194 180.465C128.731 179.975 128.999 179.322 128.999 178.505C128.999 177.782 128.696 177.187 128.089 176.72C127.483 176.253 126.748 175.88 125.884 175.6C125.021 175.32 124.146 174.993 123.259 174.62C122.396 174.247 121.661 173.652 121.054 172.835C120.448 171.995 120.144 170.945 120.144 169.685C120.144 168.075 120.751 166.745 121.964 165.695C123.178 164.622 124.601 164.085 126.234 164.085C127.914 164.085 129.314 164.622 130.434 165.695C131.578 166.745 132.161 168.098 132.184 169.755H128.544C128.451 169.032 128.194 168.46 127.774 168.04C127.354 167.62 126.783 167.41 126.059 167.41C125.429 167.41 124.893 167.597 124.449 167.97C124.006 168.343 123.784 168.845 123.784 169.475C123.784 169.638 123.796 169.802 123.819 169.965C123.866 170.105 123.913 170.233 123.959 170.35C124.006 170.467 124.076 170.583 124.169 170.7C124.286 170.817 124.379 170.91 124.449 170.98C124.519 171.05 124.636 171.132 124.799 171.225C124.963 171.318 125.079 171.388 125.149 171.435C125.219 171.458 125.359 171.517 125.569 171.61C125.779 171.68 125.908 171.727 125.954 171.75C126.024 171.75 126.176 171.797 126.409 171.89C126.643 171.96 126.771 171.995 126.794 171.995C128.638 172.555 130.073 173.313 131.099 174.27C132.126 175.227 132.639 176.568 132.639 178.295ZM143.506 167.935H140.321V184H136.681V167.935H134.056V164.61H136.681V158.1H140.321V164.61H143.506V167.935ZM154.368 167.83C153.458 167.83 152.583 168.063 151.743 168.53C150.32 169.253 149.608 170.875 149.608 173.395V184H145.968V164.61H149.363V166.36H149.433C150.46 164.913 152.105 164.155 154.368 164.085V167.83ZM175.975 164.61L165.265 190.475H161.485L164.32 183.615L156.585 164.61H160.505L166.21 179.66L172.055 164.61H175.975Z" fill="url(#paint0_linear_1_9)"/>
<path d="M743.565 166.395C743.565 170.198 741.932 172.683 738.665 173.85C737.755 174.177 736.915 174.34 736.145 174.34L743.39 184H738.665L730.125 171.995H730.055V184H726.275V158.1H734.29C737.417 158.1 739.715 158.823 741.185 160.27C742.772 161.787 743.565 163.828 743.565 166.395ZM739.785 166.395C739.785 164.832 739.225 163.642 738.105 162.825C737.008 161.985 735.655 161.565 734.045 161.565H730.055V171.47H732.645C733.578 171.47 734.43 171.4 735.2 171.26C735.97 171.097 736.717 170.84 737.44 170.49C738.163 170.14 738.735 169.615 739.155 168.915C739.575 168.215 739.785 167.375 739.785 166.395ZM764.276 184H760.951V181.9H760.881C760.368 182.787 759.575 183.44 758.501 183.86C757.451 184.28 756.343 184.49 755.176 184.49C752.983 184.49 751.14 183.848 749.646 182.565C747.943 181.095 747.091 178.61 747.091 175.11V164.61H750.731V175.11C750.731 177 751.093 178.482 751.816 179.555C752.54 180.628 753.788 181.165 755.561 181.165C757.311 181.165 758.595 180.593 759.411 179.45C760.228 178.307 760.636 176.825 760.636 175.005V164.61H764.276V184ZM789.543 174.305C789.543 177.128 788.586 179.532 786.673 181.515C784.76 183.498 782.391 184.49 779.568 184.49C778.238 184.49 776.966 184.21 775.753 183.65C774.563 183.067 773.583 182.25 772.813 181.2H772.743V184H769.138V158.1H772.778V167.305H772.848C774.411 165.158 776.628 164.085 779.498 164.085C782.275 164.085 784.643 165.1 786.603 167.13C788.563 169.137 789.543 171.528 789.543 174.305ZM785.903 174.305C785.903 172.438 785.261 170.828 783.978 169.475C782.718 168.098 781.155 167.41 779.288 167.41C777.445 167.41 775.881 168.087 774.598 169.44C773.315 170.77 772.673 172.368 772.673 174.235C772.673 176.148 773.303 177.782 774.563 179.135C775.823 180.488 777.398 181.165 779.288 181.165C781.131 181.165 782.695 180.488 783.978 179.135C785.261 177.758 785.903 176.148 785.903 174.305ZM813.64 174.305C813.64 177.128 812.683 179.532 810.77 181.515C808.856 183.498 806.488 184.49 803.665 184.49C802.335 184.49 801.063 184.21 799.85 183.65C798.66 183.067 797.68 182.25 796.91 181.2H796.84V184H793.235V158.1H796.875V167.305H796.945C798.508 165.158 800.725 164.085 803.595 164.085C806.371 164.085 808.74 165.1 810.7 167.13C812.66 169.137 813.64 171.528 813.64 174.305ZM810 174.305C810 172.438 809.358 170.828 808.075 169.475C806.815 168.098 805.251 167.41 803.385 167.41C801.541 167.41 799.978 168.087 798.695 169.44C797.411 170.77 796.77 172.368 796.77 174.235C796.77 176.148 797.4 177.782 798.66 179.135C799.92 180.488 801.495 181.165 803.385 181.165C805.228 181.165 806.791 180.488 808.075 179.135C809.358 177.758 810 176.148 810 174.305ZM836.161 174.06C836.161 174.667 836.126 175.273 836.056 175.88H819.991C820.365 177.42 821.123 178.692 822.266 179.695C823.433 180.675 824.798 181.165 826.361 181.165C827.505 181.165 828.578 180.873 829.581 180.29C830.608 179.707 831.378 178.913 831.891 177.91H835.531C834.785 179.893 833.571 181.492 831.891 182.705C830.211 183.895 828.321 184.49 826.221 184.49C823.491 184.49 821.158 183.475 819.221 181.445C817.308 179.415 816.351 177.023 816.351 174.27C816.351 171.447 817.308 169.043 819.221 167.06C821.135 165.077 823.491 164.085 826.291 164.085C829.021 164.085 831.343 165.065 833.256 167.025C835.193 168.985 836.161 171.33 836.161 174.06ZM832.521 173.08C832.428 171.493 831.751 170.152 830.491 169.055C829.255 167.958 827.843 167.41 826.256 167.41C824.67 167.41 823.246 167.958 821.986 169.055C820.75 170.152 820.085 171.493 819.991 173.08H832.521ZM848.187 167.83C847.277 167.83 846.402 168.063 845.562 168.53C844.139 169.253 843.427 170.875 843.427 173.395V184H839.787V164.61H843.182V166.36H843.252C844.279 164.913 845.924 164.155 848.187 164.085V167.83ZM865.381 184H861.601V158.1H865.381V184ZM887.495 184H883.855V173.465C883.855 169.428 882.245 167.41 879.025 167.41C877.322 167.41 876.038 167.982 875.175 169.125C874.335 170.245 873.915 171.68 873.915 173.43V184H870.275V164.61H873.67V166.675H873.74C875.047 164.948 876.937 164.085 879.41 164.085C882.513 164.085 884.8 165.24 886.27 167.55C887.087 168.81 887.495 170.467 887.495 172.52V184ZM911.506 184H908.146V181.235H908.076C906.512 183.405 904.226 184.49 901.216 184.49C898.322 184.49 895.919 183.533 894.006 181.62C892.092 179.683 891.136 177.268 891.136 174.375C891.136 171.458 892.081 169.02 893.971 167.06C895.884 165.077 898.299 164.085 901.216 164.085C902.499 164.085 903.724 164.342 904.891 164.855C906.081 165.345 907.049 166.057 907.796 166.99H907.866V158.1H911.506V184ZM908.146 174.34C908.146 172.38 907.516 170.735 906.256 169.405C904.996 168.075 903.386 167.41 901.426 167.41C899.536 167.41 897.949 168.087 896.666 169.44C895.406 170.793 894.776 172.427 894.776 174.34C894.776 176.183 895.417 177.782 896.701 179.135C897.984 180.488 899.547 181.165 901.391 181.165C903.281 181.165 904.879 180.5 906.186 179.17C907.492 177.84 908.146 176.23 908.146 174.34ZM933.329 184H930.004V181.9H929.934C929.421 182.787 928.627 183.44 927.554 183.86C926.504 184.28 925.396 184.49 924.229 184.49C922.036 184.49 920.192 183.848 918.699 182.565C916.996 181.095 916.144 178.61 916.144 175.11V164.61H919.784V175.11C919.784 177 920.146 178.482 920.869 179.555C921.592 180.628 922.841 181.165 924.614 181.165C926.364 181.165 927.647 180.593 928.464 179.45C929.281 178.307 929.689 176.825 929.689 175.005V164.61H933.329V184ZM949.745 178.295C949.745 180.162 949.126 181.667 947.89 182.81C946.676 183.93 945.125 184.49 943.235 184.49C942.441 184.49 941.613 184.338 940.75 184.035C939.326 183.522 938.241 182.717 937.495 181.62C936.748 180.5 936.375 179.17 936.375 177.63H940.015C940.085 178.703 940.388 179.567 940.925 180.22C941.485 180.85 942.278 181.165 943.305 181.165C944.121 181.165 944.786 180.932 945.3 180.465C945.836 179.975 946.105 179.322 946.105 178.505C946.105 177.782 945.801 177.187 945.195 176.72C944.588 176.253 943.853 175.88 942.99 175.6C942.126 175.32 941.251 174.993 940.365 174.62C939.501 174.247 938.766 173.652 938.16 172.835C937.553 171.995 937.25 170.945 937.25 169.685C937.25 168.075 937.856 166.745 939.07 165.695C940.283 164.622 941.706 164.085 943.34 164.085C945.02 164.085 946.42 164.622 947.54 165.695C948.683 166.745 949.266 168.098 949.29 169.755H945.65C945.556 169.032 945.3 168.46 944.88 168.04C944.46 167.62 943.888 167.41 943.165 167.41C942.535 167.41 941.998 167.597 941.555 167.97C941.111 168.343 940.89 168.845 940.89 169.475C940.89 169.638 940.901 169.802 940.925 169.965C940.971 170.105 941.018 170.233 941.065 170.35C941.111 170.467 941.181 170.583 941.275 170.7C941.391 170.817 941.485 170.91 941.555 170.98C941.625 171.05 941.741 171.132 941.905 171.225C942.068 171.318 942.185 171.388 942.255 171.435C942.325 171.458 942.465 171.517 942.675 171.61C942.885 171.68 943.013 171.727 943.06 171.75C943.13 171.75 943.281 171.797 943.515 171.89C943.748 171.96 943.876 171.995 943.9 171.995C945.743 172.555 947.178 173.313 948.205 174.27C949.231 175.227 949.745 176.568 949.745 178.295ZM960.611 167.935H957.426V184H953.786V167.935H951.161V164.61H953.786V158.1H957.426V164.61H960.611V167.935ZM971.474 167.83C970.564 167.83 969.689 168.063 968.849 168.53C967.425 169.253 966.714 170.875 966.714 173.395V184H963.074V164.61H966.469V166.36H966.539C967.565 164.913 969.21 164.155 971.474 164.085V167.83ZM993.081 164.61L982.371 190.475H978.591L981.426 183.615L973.691 164.61H977.611L983.316 179.66L989.161 164.61H993.081Z" fill="url(#paint1_linear_1_9)"/>
<path d="M245.1 184H241.32V162.125H241.215L232.5 184H230.225L221.475 162.125H221.405V184H217.625V158.1H223.575L231.345 177.945L239.15 158.1H245.1V184ZM253.661 162.37H250.021V158.1H253.661V162.37ZM253.661 184H250.021V164.61H253.661V184ZM275.546 184H271.906V173.465C271.906 169.428 270.296 167.41 267.076 167.41C265.372 167.41 264.089 167.982 263.226 169.125C262.386 170.245 261.966 171.68 261.966 173.43V184H258.326V164.61H261.721V166.675H261.791C263.097 164.948 264.987 164.085 267.461 164.085C270.564 164.085 272.851 165.24 274.321 167.55C275.137 168.81 275.546 170.467 275.546 172.52V184ZM283.841 162.37H280.201V158.1H283.841V162.37ZM283.841 184H280.201V164.61H283.841V184ZM305.726 184H302.086V173.465C302.086 169.428 300.476 167.41 297.256 167.41C295.553 167.41 294.27 167.982 293.406 169.125C292.566 170.245 292.146 171.68 292.146 173.43V184H288.506V164.61H291.901V166.675H291.971C293.278 164.948 295.168 164.085 297.641 164.085C300.745 164.085 303.031 165.24 304.501 167.55C305.318 168.81 305.726 170.467 305.726 172.52V184ZM330.122 181.375C330.122 184.618 329.177 187.138 327.287 188.935C325.42 190.732 322.865 191.63 319.622 191.63C317.475 191.63 315.55 191.093 313.847 190.02C312.167 188.947 310.907 187.442 310.067 185.505H314.127C315.434 187.372 317.277 188.305 319.657 188.305C321.874 188.305 323.565 187.71 324.732 186.52C325.899 185.353 326.482 183.662 326.482 181.445H326.412C324.942 183.475 322.714 184.49 319.727 184.49C316.927 184.49 314.5 183.487 312.447 181.48C310.394 179.45 309.367 177.035 309.367 174.235C309.367 172.742 309.717 171.295 310.417 169.895C311.304 168.052 312.564 166.628 314.197 165.625C315.854 164.598 317.72 164.085 319.797 164.085C321.034 164.085 322.259 164.33 323.472 164.82C324.709 165.287 325.712 165.963 326.482 166.85V164.61H330.122V181.375ZM326.482 174.34C326.482 171.167 325.082 169.032 322.282 167.935C321.395 167.585 320.544 167.41 319.727 167.41C317.86 167.41 316.274 168.087 314.967 169.44C313.66 170.793 313.007 172.415 313.007 174.305C313.007 176.148 313.66 177.758 314.967 179.135C316.274 180.488 317.849 181.165 319.692 181.165C321.092 181.165 322.329 180.803 323.402 180.08C324.475 179.333 325.292 178.318 325.852 177.035C326.272 176.125 326.482 175.227 326.482 174.34ZM347.946 158.1L337.866 187.5H333.876L343.956 158.1H347.946ZM380.007 184H376.227V162.125H376.122L367.407 184H365.132L356.382 162.125H356.312V184H352.532V158.1H358.482L366.252 177.945L374.057 158.1H380.007V184ZM388.568 162.37H384.928V158.1H388.568V162.37ZM388.568 184H384.928V164.61H388.568V184ZM410.453 184H406.813V173.465C406.813 169.428 405.203 167.41 401.983 167.41C400.28 167.41 398.996 167.982 398.133 169.125C397.293 170.245 396.873 171.68 396.873 173.43V184H393.233V164.61H396.628V166.675H396.698C398.005 164.948 399.895 164.085 402.368 164.085C405.471 164.085 407.758 165.24 409.228 167.55C410.045 168.81 410.453 170.467 410.453 172.52V184ZM433.939 174.06C433.939 174.667 433.904 175.273 433.834 175.88H417.769C418.142 177.42 418.9 178.692 420.044 179.695C421.21 180.675 422.575 181.165 424.139 181.165C425.282 181.165 426.355 180.873 427.359 180.29C428.385 179.707 429.155 178.913 429.669 177.91H433.309C432.562 179.893 431.349 181.492 429.669 182.705C427.989 183.895 426.099 184.49 423.999 184.49C421.269 184.49 418.935 183.475 416.999 181.445C415.085 179.415 414.129 177.023 414.129 174.27C414.129 171.447 415.085 169.043 416.999 167.06C418.912 165.077 421.269 164.085 424.069 164.085C426.799 164.085 429.12 165.065 431.034 167.025C432.97 168.985 433.939 171.33 433.939 174.06ZM430.299 173.08C430.205 171.493 429.529 170.152 428.269 169.055C427.032 167.958 425.62 167.41 424.034 167.41C422.447 167.41 421.024 167.958 419.764 169.055C418.527 170.152 417.862 171.493 417.769 173.08H430.299ZM445.965 167.83C445.055 167.83 444.18 168.063 443.34 168.53C441.916 169.253 441.205 170.875 441.205 173.395V184H437.565V164.61H440.96V166.36H441.03C442.056 164.913 443.701 164.155 445.965 164.085V167.83ZM468.067 184H464.427V180.99H464.357C463.704 182.133 462.782 183.008 461.592 183.615C460.426 184.198 459.154 184.49 457.777 184.49C454.861 184.49 452.411 183.533 450.427 181.62C448.467 179.707 447.487 177.292 447.487 174.375C447.487 171.435 448.467 168.985 450.427 167.025C452.387 165.065 454.837 164.085 457.777 164.085C459.131 164.085 460.391 164.365 461.557 164.925C462.724 165.462 463.657 166.267 464.357 167.34H464.427V164.61H468.067V184ZM464.497 174.34C464.497 172.38 463.867 170.735 462.607 169.405C461.347 168.075 459.737 167.41 457.777 167.41C455.887 167.41 454.301 168.087 453.017 169.44C451.757 170.793 451.127 172.427 451.127 174.34C451.127 176.183 451.769 177.782 453.052 179.135C454.336 180.488 455.899 181.165 457.742 181.165C459.632 181.165 461.231 180.5 462.537 179.17C463.844 177.84 464.497 176.23 464.497 174.34ZM476.581 184H472.941V158.1H476.581V184ZM505.638 160.06C507.318 161.343 508.158 163.303 508.158 165.94C508.158 168.577 507.318 170.548 505.638 171.855C503.958 173.138 501.753 173.78 499.023 173.78H495.313V184H491.533V158.1H499.023C501.753 158.1 503.958 158.753 505.638 160.06ZM502.873 169.265C503.876 168.542 504.378 167.433 504.378 165.94C504.378 164.447 503.876 163.35 502.873 162.65C501.869 161.927 500.586 161.565 499.023 161.565H495.313V170.315H499.023C500.586 170.315 501.869 169.965 502.873 169.265ZM519.554 167.83C518.644 167.83 517.769 168.063 516.929 168.53C515.505 169.253 514.794 170.875 514.794 173.395V184H511.154V164.61H514.549V166.36H514.619C515.645 164.913 517.29 164.155 519.554 164.085V167.83ZM542.006 174.235C542.006 177.035 540.991 179.45 538.961 181.48C536.931 183.487 534.458 184.49 531.541 184.49C528.671 184.49 526.209 183.487 524.156 181.48C522.103 179.45 521.076 177.012 521.076 174.165C521.076 171.342 522.103 168.962 524.156 167.025C526.233 165.065 528.694 164.085 531.541 164.085C534.411 164.085 536.873 165.065 538.926 167.025C540.979 168.985 542.006 171.388 542.006 174.235ZM536.371 179.135C537.701 177.758 538.366 176.125 538.366 174.235C538.366 172.345 537.701 170.735 536.371 169.405C535.041 168.075 533.431 167.41 531.541 167.41C529.651 167.41 528.041 168.087 526.711 169.44C525.381 170.77 524.716 172.38 524.716 174.27C524.716 176.16 525.381 177.782 526.711 179.135C528.041 180.488 529.651 181.165 531.541 181.165C533.431 181.165 535.041 180.488 536.371 179.135ZM564.189 177.595C563.466 179.695 562.241 181.375 560.514 182.635C558.811 183.872 556.851 184.49 554.634 184.49C551.788 184.49 549.419 183.51 547.529 181.55C545.639 179.567 544.694 177.14 544.694 174.27C544.694 171.423 545.639 169.02 547.529 167.06C549.443 165.077 551.823 164.085 554.669 164.085C556.816 164.085 558.799 164.738 560.619 166.045C562.463 167.352 563.653 169.02 564.189 171.05H560.164C558.998 168.623 557.178 167.41 554.704 167.41C552.768 167.41 551.216 168.063 550.049 169.37C548.906 170.677 548.334 172.31 548.334 174.27C548.334 176.183 548.906 177.817 550.049 179.17C551.216 180.5 552.744 181.165 554.634 181.165C555.871 181.165 556.968 180.85 557.924 180.22C558.881 179.59 559.616 178.715 560.129 177.595H564.189ZM586.483 174.06C586.483 174.667 586.448 175.273 586.378 175.88H570.313C570.686 177.42 571.444 178.692 572.588 179.695C573.754 180.675 575.119 181.165 576.683 181.165C577.826 181.165 578.899 180.873 579.903 180.29C580.929 179.707 581.699 178.913 582.213 177.91H585.853C585.106 179.893 583.893 181.492 582.213 182.705C580.533 183.895 578.643 184.49 576.543 184.49C573.813 184.49 571.479 183.475 569.543 181.445C567.629 179.415 566.673 177.023 566.673 174.27C566.673 171.447 567.629 169.043 569.543 167.06C571.456 165.077 573.813 164.085 576.613 164.085C579.343 164.085 581.664 165.065 583.578 167.025C585.514 168.985 586.483 171.33 586.483 174.06ZM582.843 173.08C582.749 171.493 582.073 170.152 580.813 169.055C579.576 167.958 578.164 167.41 576.578 167.41C574.991 167.41 573.568 167.958 572.308 169.055C571.071 170.152 570.406 171.493 570.313 173.08H582.843ZM601.834 178.295C601.834 180.162 601.215 181.667 599.979 182.81C598.765 183.93 597.214 184.49 595.324 184.49C594.53 184.49 593.702 184.338 592.839 184.035C591.415 183.522 590.33 182.717 589.584 181.62C588.837 180.5 588.464 179.17 588.464 177.63H592.104C592.174 178.703 592.477 179.567 593.014 180.22C593.574 180.85 594.367 181.165 595.394 181.165C596.21 181.165 596.875 180.932 597.389 180.465C597.925 179.975 598.194 179.322 598.194 178.505C598.194 177.782 597.89 177.187 597.284 176.72C596.677 176.253 595.942 175.88 595.079 175.6C594.215 175.32 593.34 174.993 592.454 174.62C591.59 174.247 590.855 173.652 590.249 172.835C589.642 171.995 589.339 170.945 589.339 169.685C589.339 168.075 589.945 166.745 591.159 165.695C592.372 164.622 593.795 164.085 595.429 164.085C597.109 164.085 598.509 164.622 599.629 165.695C600.772 166.745 601.355 168.098 601.379 169.755H597.739C597.645 169.032 597.389 168.46 596.969 168.04C596.549 167.62 595.977 167.41 595.254 167.41C594.624 167.41 594.087 167.597 593.644 167.97C593.2 168.343 592.979 168.845 592.979 169.475C592.979 169.638 592.99 169.802 593.014 169.965C593.06 170.105 593.107 170.233 593.154 170.35C593.2 170.467 593.27 170.583 593.364 170.7C593.48 170.817 593.574 170.91 593.644 170.98C593.714 171.05 593.83 171.132 593.994 171.225C594.157 171.318 594.274 171.388 594.344 171.435C594.414 171.458 594.554 171.517 594.764 171.61C594.974 171.68 595.102 171.727 595.149 171.75C595.219 171.75 595.37 171.797 595.604 171.89C595.837 171.96 595.965 171.995 595.989 171.995C597.832 172.555 599.267 173.313 600.294 174.27C601.32 175.227 601.834 176.568 601.834 178.295ZM616.668 178.295C616.668 180.162 616.049 181.667 614.813 182.81C613.599 183.93 612.048 184.49 610.158 184.49C609.364 184.49 608.536 184.338 607.673 184.035C606.249 183.522 605.164 182.717 604.418 181.62C603.671 180.5 603.298 179.17 603.298 177.63H606.938C607.008 178.703 607.311 179.567 607.848 180.22C608.408 180.85 609.201 181.165 610.228 181.165C611.044 181.165 611.709 180.932 612.223 180.465C612.759 179.975 613.028 179.322 613.028 178.505C613.028 177.782 612.724 177.187 612.118 176.72C611.511 176.253 610.776 175.88 609.913 175.6C609.049 175.32 608.174 174.993 607.288 174.62C606.424 174.247 605.689 173.652 605.083 172.835C604.476 171.995 604.173 170.945 604.173 169.685C604.173 168.075 604.779 166.745 605.993 165.695C607.206 164.622 608.629 164.085 610.263 164.085C611.943 164.085 613.343 164.622 614.463 165.695C615.606 166.745 616.189 168.098 616.213 169.755H612.573C612.479 169.032 612.223 168.46 611.803 168.04C611.383 167.62 610.811 167.41 610.088 167.41C609.458 167.41 608.921 167.597 608.478 167.97C608.034 168.343 607.813 168.845 607.813 169.475C607.813 169.638 607.824 169.802 607.848 169.965C607.894 170.105 607.941 170.233 607.988 170.35C608.034 170.467 608.104 170.583 608.198 170.7C608.314 170.817 608.408 170.91 608.478 170.98C608.548 171.05 608.664 171.132 608.828 171.225C608.991 171.318 609.108 171.388 609.178 171.435C609.248 171.458 609.388 171.517 609.598 171.61C609.808 171.68 609.936 171.727 609.983 171.75C610.053 171.75 610.204 171.797 610.438 171.89C610.671 171.96 610.799 171.995 610.823 171.995C612.666 172.555 614.101 173.313 615.128 174.27C616.154 175.227 616.668 176.568 616.668 178.295ZM623.417 162.37H619.777V158.1H623.417V162.37ZM623.417 184H619.777V164.61H623.417V184ZM645.301 184H641.661V173.465C641.661 169.428 640.051 167.41 636.831 167.41C635.128 167.41 633.845 167.982 632.981 169.125C632.141 170.245 631.721 171.68 631.721 173.43V184H628.081V164.61H631.476V166.675H631.546C632.853 164.948 634.743 164.085 637.216 164.085C640.32 164.085 642.606 165.24 644.076 167.55C644.893 168.81 645.301 170.467 645.301 172.52V184ZM669.697 181.375C669.697 184.618 668.752 187.138 666.862 188.935C664.996 190.732 662.441 191.63 659.197 191.63C657.051 191.63 655.126 191.093 653.422 190.02C651.742 188.947 650.482 187.442 649.642 185.505H653.702C655.009 187.372 656.852 188.305 659.232 188.305C661.449 188.305 663.141 187.71 664.307 186.52C665.474 185.353 666.057 183.662 666.057 181.445H665.987C664.517 183.475 662.289 184.49 659.302 184.49C656.502 184.49 654.076 183.487 652.022 181.48C649.969 179.45 648.942 177.035 648.942 174.235C648.942 172.742 649.292 171.295 649.992 169.895C650.879 168.052 652.139 166.628 653.772 165.625C655.429 164.598 657.296 164.085 659.372 164.085C660.609 164.085 661.834 164.33 663.047 164.82C664.284 165.287 665.287 165.963 666.057 166.85V164.61H669.697V181.375ZM666.057 174.34C666.057 171.167 664.657 169.032 661.857 167.935C660.971 167.585 660.119 167.41 659.302 167.41C657.436 167.41 655.849 168.087 654.542 169.44C653.236 170.793 652.582 172.415 652.582 174.305C652.582 176.148 653.236 177.758 654.542 179.135C655.849 180.488 657.424 181.165 659.267 181.165C660.667 181.165 661.904 180.803 662.977 180.08C664.051 179.333 664.867 178.318 665.427 177.035C665.847 176.125 666.057 175.227 666.057 174.34Z" fill="white"/>
<path d="M234.145 114.01L233.275 113.517L233.273 113.521L234.145 114.01ZM230.19 117.545L229.772 116.637L229.762 116.641L230.19 117.545ZM221.965 117.685L221.578 118.607L221.579 118.608L221.965 117.685ZM217.625 114.15L216.778 114.681L216.783 114.69L217.625 114.15ZM217.625 95.915L216.78 95.3805L216.778 95.3839L217.625 95.915ZM222 92.38L221.64 91.4471L221.633 91.4496L221.627 91.4523L222 92.38ZM229.875 92.45L230.28 91.5356L230.269 91.5309L229.875 92.45ZM234.04 96.02L233.181 96.5326L233.186 96.5402L233.191 96.5477L234.04 96.02ZM223.505 98.54L224.333 99.1008L224.337 99.0948L224.341 99.0887L223.505 98.54ZM223.505 111.595L224.333 111.034L224.333 111.034L223.505 111.595ZM234.475 108.655C234.475 110.509 234.067 112.121 233.275 113.517L235.015 114.503C235.996 112.773 236.475 110.814 236.475 108.655H234.475ZM233.273 113.521C232.524 114.857 231.375 115.899 229.772 116.637L230.608 118.453C232.552 117.558 234.04 116.243 235.017 114.499L233.273 113.521ZM229.762 116.641C228.57 117.206 227.293 117.49 225.92 117.49V119.49C227.58 119.49 229.15 119.144 230.618 118.449L229.762 116.641ZM225.92 117.49C224.703 117.49 223.515 117.249 222.351 116.762L221.579 118.608C222.981 119.194 224.43 119.49 225.92 119.49V117.49ZM222.352 116.763C220.629 116.04 219.349 114.985 218.467 113.61L216.783 114.69C217.907 116.441 219.521 117.744 221.578 118.607L222.352 116.763ZM218.472 113.619C217.605 112.236 217.155 110.594 217.155 108.655H215.155C215.155 110.916 215.685 112.937 216.778 114.681L218.472 113.619ZM217.155 108.655V101.445H215.155V108.655H217.155ZM217.155 101.445C217.155 99.4806 217.606 97.8274 218.472 96.4461L216.778 95.3839C215.684 97.1292 215.155 99.1627 215.155 101.445H217.155ZM218.47 96.4495C219.35 95.0577 220.634 94.0075 222.373 93.3077L221.627 91.4523C219.539 92.2925 217.906 93.599 216.78 95.3805L218.47 96.4495ZM222.36 93.3129C223.588 92.839 224.773 92.61 225.92 92.61V90.61C224.501 90.61 223.072 90.8943 221.64 91.4471L222.36 93.3129ZM225.92 92.61C227.105 92.61 228.29 92.8588 229.481 93.3691L230.269 91.5309C228.846 90.9212 227.395 90.61 225.92 90.61V92.61ZM229.47 93.3643C231.145 94.1066 232.365 95.1658 233.181 96.5326L234.899 95.5074C233.848 93.7475 232.291 92.4267 230.28 91.5357L229.47 93.3643ZM233.191 96.5477C234.035 97.9073 234.475 99.5271 234.475 101.445H236.475C236.475 99.2096 235.958 97.2127 234.889 95.4923L233.191 96.5477ZM234.475 101.445V108.655H236.475V101.445H234.475ZM229.86 108.83V101.27H227.86V108.83H229.86ZM229.86 101.27C229.86 99.8818 229.59 98.656 228.883 97.7622C228.141 96.8236 227.055 96.42 225.815 96.42V98.42C226.605 98.42 227.042 98.6581 227.314 99.0028C227.622 99.3923 227.86 100.092 227.86 101.27H229.86ZM225.815 96.42C224.497 96.42 223.379 96.91 222.669 97.9913L224.341 99.0887C224.611 98.6766 225.033 98.42 225.815 98.42V96.42ZM222.677 97.9792C222.049 98.9058 221.77 100.025 221.77 101.27H223.77C223.77 100.322 223.981 99.6208 224.333 99.1008L222.677 97.9792ZM221.77 101.27V108.83H223.77V101.27H221.77ZM221.77 108.83C221.77 110.094 222.047 111.226 222.677 112.156L224.333 111.034C223.983 110.517 223.77 109.806 223.77 108.83H221.77ZM222.677 112.156C223.392 113.212 224.51 113.68 225.815 113.68V111.68C225.02 111.68 224.598 111.425 224.333 111.034L222.677 112.156ZM225.815 113.68C227.055 113.68 228.141 113.276 228.883 112.338C229.59 111.444 229.86 110.218 229.86 108.83H227.86C227.86 110.008 227.622 110.708 227.314 111.097C227.042 111.442 226.605 111.68 225.815 111.68V113.68ZM249.376 118V119H250.376V118H249.376ZM242.761 118H241.761V119H242.761V118ZM242.761 97.665H243.761V96.665H242.761V97.665ZM238.526 97.665H237.526V98.665H238.526V97.665ZM238.526 92.1V91.1H237.526V92.1H238.526ZM249.376 92.1H250.376V91.1H249.376V92.1ZM249.376 117H242.761V119H249.376V117ZM243.761 118V97.665H241.761V118H243.761ZM242.761 96.665H238.526V98.665H242.761V96.665ZM239.526 97.665V92.1H237.526V97.665H239.526ZM238.526 93.1H249.376V91.1H238.526V93.1ZM248.376 92.1V118H250.376V92.1H248.376Z" fill="white"/>
<rect x="269" y="105" width="57" height="1" fill="white"/>
<defs>
<linearGradient id="paint0_linear_1_9" x1="-11.5" y1="175" x2="186.5" y2="175" gradientUnits="userSpaceOnUse">
<stop stop-color="white"/>
<stop offset="0.551187" stop-color="white" stop-opacity="0.2"/>
<stop offset="1" stop-color="white" stop-opacity="0"/>
</linearGradient>
<linearGradient id="paint1_linear_1_9" x1="718" y1="175" x2="975.5" y2="170" gradientUnits="userSpaceOnUse">
<stop stop-color="white"/>
<stop offset="0.411458" stop-color="white" stop-opacity="0.3"/>
<stop offset="0.947917" stop-color="white" stop-opacity="0"/>
</linearGradient>
</defs>
</svg>
